<svg xmlns="http://www.w3.org/2000/svg" viewBox="0 0 64 64" role="img" aria-labelledby="title desc">
  <title id="title">Story Dock logo</title>
  <desc id="desc">An abstract lily-pad tap mark with an inner memory ring and center tap dot.</desc>
  <path fill="#141516" fill-rule="evenodd" d="
      M30.19 6.2 C31.58 6.09 33.37 6.15 34.71 6.3 C36.05 6.45 38.73 6.93 40.03 7.31 C41.33 7.68 43.12 8.42 44.25 9.01 C45.37 9.6 47.33 10.89 48.26 11.62 C49.2 12.35 50.18 13.22 51.07 14.33 C51.97 15.44 54.01 18.38 54.79 19.75 C55.57 21.12 56.41 23.2 56.8 24.37 C57.18 25.54 57.46 27.13 57.6 28.29 C57.74 29.44 57.84 31.51 57.8 32.8 C57.76 34.09 57.54 36.3 57.3 37.72 C57.05 39.15 56.4 41.94 55.99 43.24 C55.58 44.55 54.64 46.59 54.29 47.26 C53.93 47.93 53.73 48.01 53.38 48.16 C53.04 48.31 52.81 48.62 51.78 48.36 C50.75 48.1 46.92 46.56 45.85 46.25 C44.78 45.95 44.26 46.11 43.95 46.15 C43.63 46.2 43.61 46.36 43.54 46.56 C43.48 46.75 43.24 46.67 43.44 47.56 C43.65 48.45 44.86 52.11 45.05 53.08 C45.24 54.06 45.07 54.33 44.85 54.69 C44.63 55.04 43.98 55.43 43.44 55.69 C42.91 55.95 42.03 56.32 40.93 56.59 C39.84 56.87 36.83 57.55 35.41 57.7 C34 57.85 31.98 57.85 30.59 57.7 C29.21 57.55 26.67 57.03 25.27 56.59 C23.87 56.16 21.7 55.23 20.36 54.49 C19.01 53.75 16.6 52.12 15.44 51.17 C14.27 50.23 12.7 48.64 11.82 47.56 C10.94 46.48 9.66 44.51 9.01 43.24 C8.37 41.98 7.49 39.7 7.1 38.32 C6.72 36.95 6.28 34.63 6.2 33.2 C6.12 31.78 6.27 29.37 6.5 27.88 C6.74 26.4 7.48 23.61 7.91 22.36 C8.33 21.11 9 19.79 9.61 18.75 C10.23 17.71 11.53 15.76 12.42 14.73 C13.32 13.7 15.15 12 16.14 11.22 C17.13 10.44 18.5 9.57 19.65 9.01 C20.8 8.45 23.13 7.49 24.57 7.1 C26.01 6.72 28.81 6.31 30.19 6.2 Z
      M31.5 10.12 C30.3 10.18 28.26 10.44 27.08 10.72 C25.9 10.99 23.88 11.67 22.86 12.12 C21.85 12.58 20.54 13.33 19.65 14.03 C18.76 14.73 17.18 16.23 16.34 17.24 C15.5 18.26 14.23 20.01 13.53 21.46 C12.83 22.91 11.62 26.5 11.22 27.88 C10.82 29.27 10.69 30.58 10.62 31.6 C10.55 32.61 10.55 34.2 10.72 35.31 C10.88 36.42 11.42 38.62 11.82 39.73 C12.22 40.84 13.08 42.54 13.63 43.44 C14.18 44.35 15.08 45.56 15.84 46.36 C16.59 47.15 18.01 48.48 19.15 49.27 C20.29 50.05 22.95 51.5 24.17 52.08 C25.39 52.65 27.01 53.19 28.08 53.48 C29.16 53.77 30.88 54.1 32 54.19 C33.12 54.27 35.32 54.18 36.32 54.08 C37.32 53.99 38.7 53.69 39.33 53.48 C39.96 53.28 40.89 53.62 40.93 52.58 C40.98 51.54 39.79 46.99 39.63 45.85 C39.46 44.71 39.57 44.7 39.73 44.25 C39.89 43.79 40.33 42.86 40.83 42.54 C41.34 42.22 42.17 41.68 43.44 41.94 C44.72 42.2 49.14 44.1 50.17 44.45 C51.2 44.79 50.79 44.52 50.97 44.45 C51.15 44.38 51.26 44.4 51.47 43.95 C51.69 43.49 52.24 42.3 52.58 41.14 C52.92 39.97 53.72 37.14 53.98 35.41 C54.25 33.68 54.53 29.95 54.49 28.49 C54.45 27.02 54.04 25.76 53.68 24.67 C53.33 23.59 52.41 21.54 51.88 20.56 C51.34 19.57 50.44 18.25 49.77 17.44 C49.1 16.63 47.88 15.36 46.96 14.63 C46.04 13.91 43.96 12.62 43.04 12.12 C42.12 11.63 41.22 11.28 40.23 11.02 C39.24 10.76 37.01 10.34 35.81 10.22 C34.62 10.09 32.69 10.05 31.5 10.12 Z
      M31.7 18.95 C32.73 18.95 35.06 19.19 36.12 19.45 C37.17 19.71 38.76 20.51 39.43 20.86 C40.1 21.2 40.58 21.58 41.03 21.96 C41.49 22.35 42.32 23.15 42.74 23.67 C43.17 24.19 43.76 24.83 44.15 25.78 C44.53 26.72 45.36 29.57 45.55 30.59 C45.74 31.62 45.63 32.55 45.55 33.31 C45.47 34.06 45.35 35.16 44.95 36.12 C44.55 37.08 43.45 39.32 42.64 40.33 C41.83 41.35 39.88 42.94 39.03 43.54 C38.18 44.15 37.14 44.5 36.42 44.75 C35.69 45 34.49 45.27 33.71 45.35 C32.92 45.43 31.49 45.43 30.69 45.35 C29.9 45.27 28.86 45.15 27.88 44.75 C26.91 44.35 24.6 43.28 23.57 42.44 C22.54 41.6 20.95 39.49 20.36 38.63 C19.77 37.76 19.47 36.82 19.25 36.12 C19.03 35.42 18.76 34.49 18.75 33.51 C18.74 32.52 18.93 29.92 19.15 28.89 C19.37 27.86 19.97 26.69 20.36 25.98 C20.74 25.26 21.43 24.27 21.96 23.67 C22.5 23.06 23.65 22.03 24.27 21.56 C24.89 21.09 25.89 20.54 26.48 20.25 C27.07 19.97 27.87 19.63 28.59 19.45 C29.3 19.27 30.67 18.95 31.7 18.95 Z
      M31.1 22.66 C30.07 22.82 27.95 23.53 27.08 23.97 C26.22 24.41 25.36 25.09 24.77 25.88 C24.18 26.66 23.07 28.61 22.76 29.69 C22.46 30.77 22.37 32.72 22.56 33.81 C22.76 34.89 23.58 36.74 24.17 37.62 C24.76 38.5 26.03 39.68 26.88 40.23 C27.73 40.78 29.42 41.44 30.39 41.64 C31.37 41.83 33.01 41.86 34.01 41.64 C35.01 41.42 36.84 40.65 37.72 40.03 C38.6 39.41 39.9 37.93 40.43 37.12 C40.97 36.31 41.47 35.07 41.64 34.11 C41.8 33.15 41.84 31.12 41.64 30.09 C41.43 29.06 40.65 27.37 40.13 26.58 C39.61 25.78 38.58 24.78 37.82 24.27 C37.07 23.76 35.53 23.08 34.61 22.86 C33.69 22.65 32.13 22.51 31.1 22.66 Z
      M31.3 28.49 C31.75 28.39 32.69 28.42 33.1 28.49 C33.52 28.56 33.98 28.76 34.31 28.99 C34.64 29.22 35.28 29.86 35.51 30.19 C35.75 30.52 35.95 31.03 36.02 31.4 C36.08 31.77 36.07 32.53 36.02 32.9 C35.96 33.27 35.85 33.75 35.61 34.11 C35.38 34.46 34.65 35.25 34.31 35.51 C33.97 35.77 33.43 35.93 33.1 36.02 C32.77 36.1 32.27 36.16 31.9 36.12 C31.53 36.07 30.75 35.88 30.39 35.71 C30.04 35.55 29.56 35.24 29.29 34.91 C29.02 34.58 28.52 33.74 28.39 33.31 C28.25 32.87 28.23 32.11 28.29 31.7 C28.34 31.29 28.58 30.64 28.79 30.29 C28.99 29.95 29.45 29.44 29.79 29.19 C30.13 28.94 30.84 28.58 31.3 28.49 Z
  "/>
</svg>
